<svg id="Layer_1" data-name="Layer 1" xmlns="http://www.w3.org/2000/svg" viewBox="0 0 476.63 116.65"><defs><style>.cls-1{fill:#b30753;}.cls-2{fill:#373737;}</style></defs><path class="cls-1" d="M102.07,8.07H21.27A17.66,17.66,0,0,0,3.61,25.73v80.8a17.66,17.66,0,0,0,17.66,17.66h80.8a17.65,17.65,0,0,0,17.66-17.66V25.73A17.65,17.65,0,0,0,102.07,8.07ZM90.61,109.68H69.84a20.64,20.64,0,0,1-16.25-8.29L27.18,66.13,53.6,30.85a20.63,20.63,0,0,1,16.2-8.27H90.61L58,66.13Z" transform="translate(-3.61 -7.61)"/><path class="cls-2" d="M280.74,20.19a11.68,11.68,0,0,1-3.55,8.64,12.11,12.11,0,0,1-17.13,0,11.7,11.7,0,0,1-3.53-8.64,11.7,11.7,0,0,1,3.53-8.64,12.11,12.11,0,0,1,17.13,0,11.68,11.68,0,0,1,3.55,8.64" transform="translate(-3.61 -7.61)"/><path class="cls-2" d="M368.94,20.19a11.68,11.68,0,0,1-3.55,8.64,12.11,12.11,0,0,1-17.13,0,11.7,11.7,0,0,1-3.53-8.64,11.7,11.7,0,0,1,3.53-8.64,12.11,12.11,0,0,1,17.13,0,11.68,11.68,0,0,1,3.55,8.64" transform="translate(-3.61 -7.61)"/><path class="cls-2" d="M280.74,37.09v87.17h-13a13.54,13.54,0,0,1-13.54-13.54V50.63a13.54,13.54,0,0,1,13.54-13.54Z" transform="translate(-3.61 -7.61)"/><path class="cls-2" d="M324.86,8V124.26h-13a13.54,13.54,0,0,1-13.54-13.54V21.54A13.54,13.54,0,0,1,311.86,8Z" transform="translate(-3.61 -7.61)"/><path class="cls-2" d="M368.94,37.09v87.17h-13a13.54,13.54,0,0,1-13.54-13.54V50.63a13.54,13.54,0,0,1,13.54-13.54Z" transform="translate(-3.61 -7.61)"/><path class="cls-2" d="M446.47,88.92a20.94,20.94,0,0,1-2,3.58A19.69,19.69,0,0,1,442,95.56,21.17,21.17,0,0,1,435.3,100a21.44,21.44,0,0,1-16.59,0,20.8,20.8,0,0,1-11.16-11.09,21,21,0,0,1,0-16.51A21,21,0,0,1,412,65.77a21.47,21.47,0,0,1,6.67-4.45,21.44,21.44,0,0,1,16.59,0,20.77,20.77,0,0,1,11.17,11.09,21.12,21.12,0,0,1,0,16.51M467.68,7.61a13.22,13.22,0,0,0-13.21,13.21V47.74l-4.77-3.13a43.32,43.32,0,0,0-24-7.53,42.26,42.26,0,0,0-16.81,3.4A45.25,45.25,0,0,0,395,49.79a43.43,43.43,0,0,0-12.77,31,42.23,42.23,0,0,0,3.4,16.81,45.19,45.19,0,0,0,9.31,13.93,43.14,43.14,0,0,0,13.82,9.36,42.71,42.71,0,0,0,17,3.41,41.37,41.37,0,0,0,28.75-11.66v2.73a8.93,8.93,0,0,0,8.94,8.93h16.83V7.61Z" transform="translate(-3.61 -7.61)"/><path class="cls-2" d="M205.64,80.67l32.66,43.59h-21A20.77,20.77,0,0,1,201,115.93l-23.8-31.77v40.1h-13a13.55,13.55,0,0,1-13.55-13.54V21.54A13.55,13.55,0,0,1,164.2,8h13V77.18L201,45.4a20.72,20.72,0,0,1,16.29-8.31h21Z" transform="translate(-3.61 -7.61)"/></svg>